<?xml version="1.0" encoding="UTF-8"?>
<svg version="1.1" viewBox="0 0 1678 1678" width="1280" height="1280" xmlns="http://www.w3.org/2000/svg">
<path transform="translate(124,127)" d="m0 0 7 2 48 30 17 12 10 8 10 9 12 12 18 22 11 12 8 8 7 8 14 17 9 11 12 16 11 16 4 5 11 9 13 12 10 11 9 14 7 18 3 17 4 17 1 11 1 6 1 12v12l1 9 1 38 1 9-1 37v59l1 21 1 5v10l1 13 2 14 1 10 1 9 2 10 2 14 4 15 5 15 17 34 9 15 12 16 11 13 12 12 11 9 13 10 41 26 28 19 15 10 24 13 24 15 17 11 19 12 10 4 24 12 21 9 25 12 11 6 18 10 16 7 22 12 24 11 34 17 14 10 23 15 32 18 14 8 21 10 16 8 45 20 25 9 26 10 2 2-1 4-13 5 18 4 14 4 17 4 18 5 18 4 12 3 17 4 16 4 22 6 14 4 16 5 31 11 42 16 52 19 65 26 41 17 24 11 16 8 19 10 19 12 21 16 11 9 7 11 6 17 1 7v10l-3 12-4 9-8 4-17 11-19 12-17 9-30 13-21 8-9 4-9-1-10-3-8-6-20-13-25-15-22-12-27-14-38-19-41-18-80-36-31-13-30-13-27-10-19-6-13-4-14-4-17-4-15-4-14-3-19-3-6-1-16-3-24-3-24-2h-11l-13-1h-9l-21-2-18-1-14-1-34-1h-67l-16 2-11 3-9 1-10 2-16 4-12 1-17 3-10 2-19 3-12 2-15 2-12 4-1 5 5 19 8 20 12 25 8 21 2 6 1 12 1 6v36l-2 12-1 13-3 14-2 8-4 17-4 14-3 10-7 19-3 13-3 11-3 15-4 16-3 17-1 11v9l-1 11h-43l2-11 3-10 3-11 3-12 2-12 5-18 4-17 3-15 2-13 3-13 2-17 2-20v-18l-3-21-2-12-4-14-5-16-10-21-12-22-9-15-12-17-12-15-5-5 2 14 2 13 5 18 1 11 2 14 1 17 1 28 1 9v12l-3 19-6 17-9 17-12 16-11 13-11 12-28 28-9 11-10 12-12 16-14 18-13 18-8 12h-41l3-5 13-16 14-20 12-20 34-51 24-42 5-5 7-14 3-12 1-9v-30l-2-13-6-20-22-66-8-19-8-20-11-24-17-35-4-7-10-11-8-10-11-12-8-7-10-10-7-8-16-15-32-32-7-8-11-12-10-13-20-30-14-25-8-16-17-35-8-19-4-16-3-13-2-14-1-10-1-11v-58l1-16 2-20 2-10 2-14 4-20 2-12 3-13 3-17 3-15 4-16 4-18 4-14 4-17 3-11 3-15 3-12 3-15 3-12 2-12 4-20 2-16 1-9 1-17 3-12 2-12 1-9 1-5 2-17 1-14 2-13 1-24 2-13 1-12v-45l-3-17-2-9-5-17-7-19-6-16-8-16-16-31-6-15-12-27-10-18-6-10-7-9-5-5-10-9z"/>
</svg>
